<mxfile host="Electron" agent="Mozilla/5.0 (X11; Linux x86_64) AppleWebKit/537.36 (KHTML, like Gecko) draw.io/26.1.1 Chrome/132.0.6834.210 Electron/34.3.3 Safari/537.36" version="26.1.1">
  <diagram name="PÃ¡gina-1" id="tbhhrolYnf2YLyF_AGn1">
    <mxGraphModel dx="1363" dy="1123" grid="1" gridSize="10" guides="1" tooltips="1" connect="1" arrows="1" fold="1" page="1" pageScale="1" pageWidth="827" pageHeight="1169" math="0" shadow="0">
      <root>
        <mxCell id="0" />
        <mxCell id="1" parent="0" />
        <mxCell id="gUQwB867zqCJYkILIy9S-1" value="EXERC016&lt;span style=&quot;background-color: transparent; color: light-dark(rgb(0, 0, 0), rgb(255, 255, 255));&quot;&gt;&amp;nbsp;-&amp;nbsp;&lt;/span&gt;CHECK IF AN ARRAY IS IN ASCENDING ORDER" style="text;html=1;align=left;verticalAlign=middle;whiteSpace=wrap;rounded=0;fontStyle=1" parent="1" vertex="1">
          <mxGeometry x="40" y="40" width="760" height="30" as="geometry" />
        </mxCell>
        <mxCell id="gUQwB867zqCJYkILIy9S-21" style="edgeStyle=orthogonalEdgeStyle;rounded=0;orthogonalLoop=1;jettySize=auto;html=1;exitX=0.5;exitY=1;exitDx=0;exitDy=0;exitPerimeter=0;entryX=0.5;entryY=0;entryDx=0;entryDy=0;" parent="1" source="gUQwB867zqCJYkILIy9S-3" target="gUQwB867zqCJYkILIy9S-4" edge="1">
          <mxGeometry relative="1" as="geometry" />
        </mxCell>
        <mxCell id="gUQwB867zqCJYkILIy9S-3" value="Start" style="strokeWidth=2;html=1;shape=mxgraph.flowchart.terminator;whiteSpace=wrap;" parent="1" vertex="1">
          <mxGeometry x="81.94" y="84" width="100" height="60" as="geometry" />
        </mxCell>
        <mxCell id="3jQmmOMbjJLLry7wghpk-2" style="edgeStyle=orthogonalEdgeStyle;rounded=0;orthogonalLoop=1;jettySize=auto;html=1;exitX=0.5;exitY=1;exitDx=0;exitDy=0;entryX=0.5;entryY=0;entryDx=0;entryDy=0;" parent="1" source="gUQwB867zqCJYkILIy9S-4" target="3jQmmOMbjJLLry7wghpk-1" edge="1">
          <mxGeometry relative="1" as="geometry" />
        </mxCell>
        <mxCell id="gUQwB867zqCJYkILIy9S-4" value="&lt;div&gt;&lt;br&gt;&lt;/div&gt;n&lt;div&gt;ordenado&lt;/div&gt;&lt;div&gt;v&lt;/div&gt;" style="shape=internalStorage;whiteSpace=wrap;html=1;dx=15;dy=15;rounded=1;arcSize=8;strokeWidth=2;" parent="1" vertex="1">
          <mxGeometry x="79.44" y="174" width="105" height="66" as="geometry" />
        </mxCell>
        <mxCell id="3jQmmOMbjJLLry7wghpk-1" value="ordenado = verdadeiro" style="rounded=1;whiteSpace=wrap;html=1;absoluteArcSize=1;arcSize=14;strokeWidth=2;" parent="1" vertex="1">
          <mxGeometry x="80.94" y="270" width="100" height="40" as="geometry" />
        </mxCell>
        <mxCell id="2HPTrhq_70WgHCPPMAGq-3" value="" style="edgeStyle=orthogonalEdgeStyle;rounded=0;orthogonalLoop=1;jettySize=auto;html=1;exitX=0.5;exitY=1;exitDx=0;exitDy=0;entryX=0.5;entryY=0;entryDx=0;entryDy=0;" edge="1" parent="1" source="3jQmmOMbjJLLry7wghpk-1" target="2HPTrhq_70WgHCPPMAGq-1">
          <mxGeometry relative="1" as="geometry">
            <mxPoint x="132" y="300" as="sourcePoint" />
            <mxPoint x="132" y="800" as="targetPoint" />
          </mxGeometry>
        </mxCell>
        <mxCell id="2HPTrhq_70WgHCPPMAGq-1" value="&lt;br&gt;&lt;div&gt;n&lt;/div&gt;" style="html=1;strokeWidth=2;shape=manualInput;whiteSpace=wrap;rounded=1;size=26;arcSize=11;" vertex="1" parent="1">
          <mxGeometry x="81.94" y="340" width="100" height="60" as="geometry" />
        </mxCell>
        <mxCell id="2HPTrhq_70WgHCPPMAGq-5" value="" style="edgeStyle=orthogonalEdgeStyle;rounded=0;orthogonalLoop=1;jettySize=auto;html=1;exitX=0.5;exitY=1;exitDx=0;exitDy=0;entryX=0.5;entryY=0;entryDx=0;entryDy=0;" edge="1" parent="1" source="2HPTrhq_70WgHCPPMAGq-1" target="2HPTrhq_70WgHCPPMAGq-4">
          <mxGeometry relative="1" as="geometry">
            <mxPoint x="132" y="400" as="sourcePoint" />
            <mxPoint x="132" y="800" as="targetPoint" />
          </mxGeometry>
        </mxCell>
        <mxCell id="2HPTrhq_70WgHCPPMAGq-4" value="v[n]" style="rounded=1;whiteSpace=wrap;html=1;absoluteArcSize=1;arcSize=14;strokeWidth=2;" vertex="1" parent="1">
          <mxGeometry x="80.94" y="430" width="100" height="40" as="geometry" />
        </mxCell>
        <mxCell id="2HPTrhq_70WgHCPPMAGq-7" value="" style="edgeStyle=orthogonalEdgeStyle;rounded=0;orthogonalLoop=1;jettySize=auto;html=1;exitX=0.5;exitY=1;exitDx=0;exitDy=0;entryX=0.5;entryY=0;entryDx=0;entryDy=0;" edge="1" parent="1" source="2HPTrhq_70WgHCPPMAGq-4" target="2HPTrhq_70WgHCPPMAGq-6">
          <mxGeometry relative="1" as="geometry">
            <mxPoint x="131" y="470" as="sourcePoint" />
            <mxPoint x="132" y="800" as="targetPoint" />
          </mxGeometry>
        </mxCell>
        <mxCell id="2HPTrhq_70WgHCPPMAGq-9" style="edgeStyle=orthogonalEdgeStyle;rounded=0;orthogonalLoop=1;jettySize=auto;html=1;exitX=0.5;exitY=1;exitDx=0;exitDy=0;entryX=0.5;entryY=0;entryDx=0;entryDy=0;" edge="1" parent="1" source="2HPTrhq_70WgHCPPMAGq-6" target="2HPTrhq_70WgHCPPMAGq-8">
          <mxGeometry relative="1" as="geometry" />
        </mxCell>
        <mxCell id="2HPTrhq_70WgHCPPMAGq-6" value="i 0, n, 1" style="shape=hexagon;perimeter=hexagonPerimeter2;whiteSpace=wrap;html=1;fixedSize=1;" vertex="1" parent="1">
          <mxGeometry x="70.94" y="500" width="120" height="40" as="geometry" />
        </mxCell>
        <mxCell id="2HPTrhq_70WgHCPPMAGq-10" style="edgeStyle=orthogonalEdgeStyle;rounded=0;orthogonalLoop=1;jettySize=auto;html=1;exitX=0;exitY=0.75;exitDx=0;exitDy=0;entryX=0;entryY=0.5;entryDx=0;entryDy=0;" edge="1" parent="1" source="2HPTrhq_70WgHCPPMAGq-8" target="2HPTrhq_70WgHCPPMAGq-6">
          <mxGeometry relative="1" as="geometry" />
        </mxCell>
        <mxCell id="2HPTrhq_70WgHCPPMAGq-8" value="&lt;div&gt;&lt;br&gt;&lt;/div&gt;v[i]" style="html=1;strokeWidth=2;shape=manualInput;whiteSpace=wrap;rounded=1;size=26;arcSize=11;" vertex="1" parent="1">
          <mxGeometry x="81.94" y="570" width="100" height="60" as="geometry" />
        </mxCell>
        <mxCell id="2HPTrhq_70WgHCPPMAGq-14" style="edgeStyle=orthogonalEdgeStyle;rounded=0;orthogonalLoop=1;jettySize=auto;html=1;exitX=0.5;exitY=1;exitDx=0;exitDy=0;exitPerimeter=0;" edge="1" parent="1" source="2HPTrhq_70WgHCPPMAGq-11" target="2HPTrhq_70WgHCPPMAGq-13">
          <mxGeometry relative="1" as="geometry" />
        </mxCell>
        <mxCell id="2HPTrhq_70WgHCPPMAGq-11" value="" style="verticalLabelPosition=bottom;verticalAlign=top;html=1;shape=mxgraph.flowchart.on-page_reference;" vertex="1" parent="1">
          <mxGeometry x="301.94" y="84" width="40" height="40" as="geometry" />
        </mxCell>
        <mxCell id="2HPTrhq_70WgHCPPMAGq-16" style="edgeStyle=orthogonalEdgeStyle;rounded=0;orthogonalLoop=1;jettySize=auto;html=1;exitX=0.5;exitY=1;exitDx=0;exitDy=0;entryX=0.5;entryY=0;entryDx=0;entryDy=0;" edge="1" parent="1" source="2HPTrhq_70WgHCPPMAGq-13" target="2HPTrhq_70WgHCPPMAGq-15">
          <mxGeometry relative="1" as="geometry" />
        </mxCell>
        <mxCell id="2HPTrhq_70WgHCPPMAGq-13" value="i 0, n -1, 1" style="shape=hexagon;perimeter=hexagonPerimeter2;whiteSpace=wrap;html=1;fixedSize=1;" vertex="1" parent="1">
          <mxGeometry x="261.94" y="154" width="120" height="40" as="geometry" />
        </mxCell>
        <mxCell id="2HPTrhq_70WgHCPPMAGq-15" value="j i+1, j &amp;lt; n, 1" style="shape=hexagon;perimeter=hexagonPerimeter2;whiteSpace=wrap;html=1;fixedSize=1;" vertex="1" parent="1">
          <mxGeometry x="261.94" y="224" width="120" height="40" as="geometry" />
        </mxCell>
        <mxCell id="2HPTrhq_70WgHCPPMAGq-19" style="edgeStyle=orthogonalEdgeStyle;rounded=0;orthogonalLoop=1;jettySize=auto;html=1;exitX=1;exitY=0.5;exitDx=0;exitDy=0;exitPerimeter=0;entryX=0;entryY=0.5;entryDx=0;entryDy=0;" edge="1" parent="1" source="2HPTrhq_70WgHCPPMAGq-17" target="2HPTrhq_70WgHCPPMAGq-18">
          <mxGeometry relative="1" as="geometry" />
        </mxCell>
        <mxCell id="2HPTrhq_70WgHCPPMAGq-22" value="Yes" style="edgeLabel;html=1;align=center;verticalAlign=middle;resizable=0;points=[];" vertex="1" connectable="0" parent="2HPTrhq_70WgHCPPMAGq-19">
          <mxGeometry x="-0.5102" y="-2" relative="1" as="geometry">
            <mxPoint x="2" y="-2" as="offset" />
          </mxGeometry>
        </mxCell>
        <mxCell id="2HPTrhq_70WgHCPPMAGq-21" style="edgeStyle=orthogonalEdgeStyle;rounded=0;orthogonalLoop=1;jettySize=auto;html=1;exitX=0.5;exitY=1;exitDx=0;exitDy=0;exitPerimeter=0;" edge="1" parent="1" source="2HPTrhq_70WgHCPPMAGq-17" target="2HPTrhq_70WgHCPPMAGq-20">
          <mxGeometry relative="1" as="geometry" />
        </mxCell>
        <mxCell id="2HPTrhq_70WgHCPPMAGq-23" value="No" style="edgeLabel;html=1;align=center;verticalAlign=middle;resizable=0;points=[];" vertex="1" connectable="0" parent="2HPTrhq_70WgHCPPMAGq-21">
          <mxGeometry x="-0.4023" y="1" relative="1" as="geometry">
            <mxPoint y="2" as="offset" />
          </mxGeometry>
        </mxCell>
        <mxCell id="2HPTrhq_70WgHCPPMAGq-17" value="v[j] &amp;lt; v[i]" style="strokeWidth=2;html=1;shape=mxgraph.flowchart.decision;whiteSpace=wrap;" vertex="1" parent="1">
          <mxGeometry x="271" y="294" width="100" height="100" as="geometry" />
        </mxCell>
        <mxCell id="2HPTrhq_70WgHCPPMAGq-18" value="ordenado = falso" style="rounded=1;whiteSpace=wrap;html=1;absoluteArcSize=1;arcSize=14;strokeWidth=2;" vertex="1" parent="1">
          <mxGeometry x="420" y="324" width="100" height="40" as="geometry" />
        </mxCell>
        <mxCell id="2HPTrhq_70WgHCPPMAGq-26" style="edgeStyle=orthogonalEdgeStyle;rounded=0;orthogonalLoop=1;jettySize=auto;html=1;exitX=0;exitY=0.5;exitDx=0;exitDy=0;exitPerimeter=0;entryX=0;entryY=0.5;entryDx=0;entryDy=0;" edge="1" parent="1" source="2HPTrhq_70WgHCPPMAGq-20" target="2HPTrhq_70WgHCPPMAGq-15">
          <mxGeometry relative="1" as="geometry">
            <Array as="points">
              <mxPoint x="240" y="444" />
              <mxPoint x="240" y="244" />
            </Array>
          </mxGeometry>
        </mxCell>
        <mxCell id="2HPTrhq_70WgHCPPMAGq-20" value="" style="verticalLabelPosition=bottom;verticalAlign=top;html=1;shape=mxgraph.flowchart.on-page_reference;" vertex="1" parent="1">
          <mxGeometry x="300.94" y="424" width="40" height="40" as="geometry" />
        </mxCell>
        <mxCell id="2HPTrhq_70WgHCPPMAGq-24" style="edgeStyle=orthogonalEdgeStyle;rounded=0;orthogonalLoop=1;jettySize=auto;html=1;exitX=0.5;exitY=1;exitDx=0;exitDy=0;entryX=1;entryY=0.5;entryDx=0;entryDy=0;entryPerimeter=0;" edge="1" parent="1" source="2HPTrhq_70WgHCPPMAGq-18" target="2HPTrhq_70WgHCPPMAGq-20">
          <mxGeometry relative="1" as="geometry" />
        </mxCell>
        <mxCell id="2HPTrhq_70WgHCPPMAGq-25" style="edgeStyle=orthogonalEdgeStyle;rounded=0;orthogonalLoop=1;jettySize=auto;html=1;exitX=0.5;exitY=1;exitDx=0;exitDy=0;entryX=0.5;entryY=0;entryDx=0;entryDy=0;entryPerimeter=0;" edge="1" parent="1" source="2HPTrhq_70WgHCPPMAGq-15" target="2HPTrhq_70WgHCPPMAGq-17">
          <mxGeometry relative="1" as="geometry" />
        </mxCell>
        <mxCell id="2HPTrhq_70WgHCPPMAGq-29" style="edgeStyle=orthogonalEdgeStyle;rounded=0;orthogonalLoop=1;jettySize=auto;html=1;exitX=0;exitY=0.5;exitDx=0;exitDy=0;exitPerimeter=0;entryX=0;entryY=0.5;entryDx=0;entryDy=0;" edge="1" parent="1" source="2HPTrhq_70WgHCPPMAGq-27" target="2HPTrhq_70WgHCPPMAGq-13">
          <mxGeometry relative="1" as="geometry">
            <Array as="points">
              <mxPoint x="230" y="504" />
              <mxPoint x="230" y="174" />
            </Array>
          </mxGeometry>
        </mxCell>
        <mxCell id="2HPTrhq_70WgHCPPMAGq-27" value="" style="verticalLabelPosition=bottom;verticalAlign=top;html=1;shape=mxgraph.flowchart.on-page_reference;" vertex="1" parent="1">
          <mxGeometry x="300.94" y="484" width="40" height="40" as="geometry" />
        </mxCell>
        <mxCell id="2HPTrhq_70WgHCPPMAGq-28" style="edgeStyle=orthogonalEdgeStyle;rounded=0;orthogonalLoop=1;jettySize=auto;html=1;exitX=1;exitY=0.5;exitDx=0;exitDy=0;entryX=1;entryY=0.5;entryDx=0;entryDy=0;entryPerimeter=0;" edge="1" parent="1" source="2HPTrhq_70WgHCPPMAGq-15" target="2HPTrhq_70WgHCPPMAGq-27">
          <mxGeometry relative="1" as="geometry">
            <Array as="points">
              <mxPoint x="530" y="244" />
              <mxPoint x="530" y="504" />
            </Array>
          </mxGeometry>
        </mxCell>
        <mxCell id="2HPTrhq_70WgHCPPMAGq-30" value="" style="verticalLabelPosition=bottom;verticalAlign=top;html=1;shape=mxgraph.flowchart.on-page_reference;" vertex="1" parent="1">
          <mxGeometry x="300.94" y="544" width="40" height="40" as="geometry" />
        </mxCell>
        <mxCell id="2HPTrhq_70WgHCPPMAGq-31" style="edgeStyle=orthogonalEdgeStyle;rounded=0;orthogonalLoop=1;jettySize=auto;html=1;exitX=1;exitY=0.5;exitDx=0;exitDy=0;entryX=1;entryY=0.5;entryDx=0;entryDy=0;entryPerimeter=0;" edge="1" parent="1" source="2HPTrhq_70WgHCPPMAGq-13" target="2HPTrhq_70WgHCPPMAGq-30">
          <mxGeometry relative="1" as="geometry">
            <Array as="points">
              <mxPoint x="540" y="174" />
              <mxPoint x="540" y="564" />
            </Array>
          </mxGeometry>
        </mxCell>
        <mxCell id="2HPTrhq_70WgHCPPMAGq-35" style="edgeStyle=orthogonalEdgeStyle;rounded=0;orthogonalLoop=1;jettySize=auto;html=1;exitX=1;exitY=0.5;exitDx=0;exitDy=0;exitPerimeter=0;" edge="1" parent="1" source="2HPTrhq_70WgHCPPMAGq-32" target="2HPTrhq_70WgHCPPMAGq-33">
          <mxGeometry relative="1" as="geometry" />
        </mxCell>
        <mxCell id="2HPTrhq_70WgHCPPMAGq-38" value="Yes" style="edgeLabel;html=1;align=center;verticalAlign=middle;resizable=0;points=[];" vertex="1" connectable="0" parent="2HPTrhq_70WgHCPPMAGq-35">
          <mxGeometry x="0.198" y="-1" relative="1" as="geometry">
            <mxPoint x="-10" y="-2" as="offset" />
          </mxGeometry>
        </mxCell>
        <mxCell id="2HPTrhq_70WgHCPPMAGq-32" value="ordenado" style="strokeWidth=2;html=1;shape=mxgraph.flowchart.decision;whiteSpace=wrap;" vertex="1" parent="1">
          <mxGeometry x="270.94" y="614" width="100" height="100" as="geometry" />
        </mxCell>
        <mxCell id="2HPTrhq_70WgHCPPMAGq-33" value="EstÃ¡ em ordem crescente" style="strokeWidth=2;html=1;shape=mxgraph.flowchart.display;whiteSpace=wrap;" vertex="1" parent="1">
          <mxGeometry x="410" y="634" width="100" height="60" as="geometry" />
        </mxCell>
        <mxCell id="2HPTrhq_70WgHCPPMAGq-34" value="NÃ£o estÃ¡ em ordem crescente" style="strokeWidth=2;html=1;shape=mxgraph.flowchart.display;whiteSpace=wrap;" vertex="1" parent="1">
          <mxGeometry x="271" y="744" width="100" height="60" as="geometry" />
        </mxCell>
        <mxCell id="2HPTrhq_70WgHCPPMAGq-36" style="edgeStyle=orthogonalEdgeStyle;rounded=0;orthogonalLoop=1;jettySize=auto;html=1;exitX=0.5;exitY=1;exitDx=0;exitDy=0;exitPerimeter=0;entryX=0.5;entryY=0;entryDx=0;entryDy=0;entryPerimeter=0;" edge="1" parent="1" source="2HPTrhq_70WgHCPPMAGq-32" target="2HPTrhq_70WgHCPPMAGq-34">
          <mxGeometry relative="1" as="geometry" />
        </mxCell>
        <mxCell id="2HPTrhq_70WgHCPPMAGq-39" value="No" style="edgeLabel;html=1;align=center;verticalAlign=middle;resizable=0;points=[];" vertex="1" connectable="0" parent="2HPTrhq_70WgHCPPMAGq-36">
          <mxGeometry x="-0.04" relative="1" as="geometry">
            <mxPoint y="-4" as="offset" />
          </mxGeometry>
        </mxCell>
        <mxCell id="2HPTrhq_70WgHCPPMAGq-37" style="edgeStyle=orthogonalEdgeStyle;rounded=0;orthogonalLoop=1;jettySize=auto;html=1;exitX=0.5;exitY=1;exitDx=0;exitDy=0;exitPerimeter=0;entryX=0.5;entryY=0;entryDx=0;entryDy=0;entryPerimeter=0;" edge="1" parent="1" source="2HPTrhq_70WgHCPPMAGq-30" target="2HPTrhq_70WgHCPPMAGq-32">
          <mxGeometry relative="1" as="geometry" />
        </mxCell>
        <mxCell id="2HPTrhq_70WgHCPPMAGq-40" value="" style="verticalLabelPosition=bottom;verticalAlign=top;html=1;shape=mxgraph.flowchart.on-page_reference;" vertex="1" parent="1">
          <mxGeometry x="301.94" y="834" width="40" height="40" as="geometry" />
        </mxCell>
        <mxCell id="2HPTrhq_70WgHCPPMAGq-41" style="edgeStyle=orthogonalEdgeStyle;rounded=0;orthogonalLoop=1;jettySize=auto;html=1;exitX=0.5;exitY=1;exitDx=0;exitDy=0;exitPerimeter=0;entryX=0.5;entryY=0;entryDx=0;entryDy=0;entryPerimeter=0;" edge="1" parent="1" source="2HPTrhq_70WgHCPPMAGq-34" target="2HPTrhq_70WgHCPPMAGq-40">
          <mxGeometry relative="1" as="geometry" />
        </mxCell>
        <mxCell id="2HPTrhq_70WgHCPPMAGq-42" style="edgeStyle=orthogonalEdgeStyle;rounded=0;orthogonalLoop=1;jettySize=auto;html=1;exitX=0.5;exitY=1;exitDx=0;exitDy=0;exitPerimeter=0;entryX=1;entryY=0.5;entryDx=0;entryDy=0;entryPerimeter=0;" edge="1" parent="1" source="2HPTrhq_70WgHCPPMAGq-33" target="2HPTrhq_70WgHCPPMAGq-40">
          <mxGeometry relative="1" as="geometry" />
        </mxCell>
        <mxCell id="2HPTrhq_70WgHCPPMAGq-43" value="Stop" style="strokeWidth=2;html=1;shape=mxgraph.flowchart.terminator;whiteSpace=wrap;" vertex="1" parent="1">
          <mxGeometry x="271.0000000000001" y="904" width="100" height="60" as="geometry" />
        </mxCell>
        <mxCell id="2HPTrhq_70WgHCPPMAGq-44" style="edgeStyle=orthogonalEdgeStyle;rounded=0;orthogonalLoop=1;jettySize=auto;html=1;exitX=0.5;exitY=1;exitDx=0;exitDy=0;exitPerimeter=0;entryX=0.5;entryY=0;entryDx=0;entryDy=0;entryPerimeter=0;" edge="1" parent="1" source="2HPTrhq_70WgHCPPMAGq-40" target="2HPTrhq_70WgHCPPMAGq-43">
          <mxGeometry relative="1" as="geometry" />
        </mxCell>
        <mxCell id="2HPTrhq_70WgHCPPMAGq-46" style="edgeStyle=orthogonalEdgeStyle;rounded=0;orthogonalLoop=1;jettySize=auto;html=1;exitX=1;exitY=0.5;exitDx=0;exitDy=0;entryX=0;entryY=0.5;entryDx=0;entryDy=0;entryPerimeter=0;" edge="1" parent="1" source="2HPTrhq_70WgHCPPMAGq-6" target="2HPTrhq_70WgHCPPMAGq-11">
          <mxGeometry relative="1" as="geometry">
            <Array as="points">
              <mxPoint x="210" y="520" />
              <mxPoint x="210" y="104" />
            </Array>
          </mxGeometry>
        </mxCell>
      </root>
    </mxGraphModel>
  </diagram>
</mxfile>
